<svg width="18" height="18" viewBox="0 0 18 18" fill="none" xmlns="http://www.w3.org/2000/svg">
<path d="M5.25416 16.5C4.84128 16.5 4.48795 16.3532 4.19418 16.0597C3.89991 15.7657 3.75277 15.4125 3.75277 15C3.75277 14.5875 3.89991 14.2343 4.19418 13.9403C4.48795 13.6468 4.84128 13.5 5.25416 13.5C5.66704 13.5 6.02037 13.6468 6.31414 13.9403C6.60841 14.2343 6.75555 14.5875 6.75555 15C6.75555 15.4125 6.60841 15.7657 6.31414 16.0597C6.02037 16.3532 5.66704 16.5 5.25416 16.5ZM12.7611 16.5C12.3482 16.5 11.9949 16.3532 11.7011 16.0597C11.4068 15.7657 11.2597 15.4125 11.2597 15C11.2597 14.5875 11.4068 14.2343 11.7011 13.9403C11.9949 13.6468 12.3482 13.5 12.7611 13.5C13.174 13.5 13.5276 13.6468 13.8218 13.9403C14.1156 14.2343 14.2625 14.5875 14.2625 15C14.2625 15.4125 14.1156 15.7657 13.8218 16.0597C13.5276 16.3532 13.174 16.5 12.7611 16.5ZM3.90291 3H14.9756C15.2634 3 15.4824 3.128 15.6325 3.384C15.7826 3.6405 15.7889 3.9 15.6513 4.1625L12.9863 8.9625C12.8487 9.2125 12.664 9.40625 12.4323 9.54375C12.2011 9.68125 11.9478 9.75 11.6726 9.75H6.07992L5.25416 11.25H14.2625V12.75H5.25416C4.69114 12.75 4.26575 12.503 3.97798 12.009C3.69022 11.5155 3.6777 11.025 3.94045 10.5375L4.95388 8.7L2.25139 3H0.75V1.5H3.18975L3.90291 3Z" fill="#1E1E1E"/>
</svg>
