<svg width="50" height="51" viewBox="0 0 50 51" fill="none" xmlns="http://www.w3.org/2000/svg">
<path d="M9.375 44.25C8.50694 44.25 7.76944 43.9458 7.1625 43.3375C6.55417 42.7306 6.25 41.9931 6.25 41.125V37.1667L14.5833 29.7708V44.25H9.375ZM16.6667 44.25V35.9167H33.3333V44.25H16.6667ZM35.4167 44.25V27.1667L26.5104 19.25L32.8125 13.6771L42.7083 22.4792C43.0556 22.7917 43.316 23.1472 43.4896 23.5458C43.6632 23.9458 43.75 24.3715 43.75 24.8229V41.125C43.75 41.9931 43.4458 42.7306 42.8375 43.3375C42.2306 43.9458 41.4931 44.25 40.625 44.25H35.4167ZM6.25 34.3542V24.8229C6.25 24.3715 6.33681 23.9375 6.51042 23.5208C6.68403 23.1042 6.94444 22.7569 7.29167 22.4792L22.9167 8.625C23.1944 8.34722 23.516 8.14722 23.8813 8.025C24.2451 7.90417 24.6181 7.84375 25 7.84375C25.3819 7.84375 25.7556 7.90417 26.1208 8.025C26.4847 8.14722 26.8056 8.34722 27.0833 8.625L31.25 12.3229L6.25 34.3542Z" fill="black"/>
</svg>
