<svg width="19" height="19" viewBox="0 0 19 19" fill="none" xmlns="http://www.w3.org/2000/svg">
<path d="M1.72727 3.16666C1.26917 3.16666 0.829833 3.35433 0.505906 3.68838C0.18198 4.02243 0 4.4755 0 4.94791V14.7448H1.72727C1.72727 15.4534 2.00024 16.133 2.48613 16.6341C2.97202 17.1352 3.63103 17.4167 4.31818 17.4167C5.00533 17.4167 5.66434 17.1352 6.15023 16.6341C6.63612 16.133 6.90909 15.4534 6.90909 14.7448H12.0909C12.0909 15.4534 12.3639 16.133 12.8498 16.6341C13.3357 17.1352 13.9947 17.4167 14.6818 17.4167C15.369 17.4167 16.028 17.1352 16.5139 16.6341C16.9998 16.133 17.2727 15.4534 17.2727 14.7448H19V10.2917L16.4091 6.72916H13.8182V3.16666M7.77273 4.94791L11.2273 8.51041L7.77273 12.0729V9.40104H2.59091V7.61979H7.77273M13.8182 8.0651H15.9773L17.6786 10.2917H13.8182M4.31818 13.4089C4.66176 13.4089 4.99126 13.5496 5.23421 13.8001C5.47715 14.0507 5.61364 14.3905 5.61364 14.7448C5.61364 15.0991 5.47715 15.4389 5.23421 15.6894C4.99126 15.94 4.66176 16.0807 4.31818 16.0807C3.97461 16.0807 3.6451 15.94 3.40216 15.6894C3.15921 15.4389 3.02273 15.0991 3.02273 14.7448C3.02273 14.3905 3.15921 14.0507 3.40216 13.8001C3.6451 13.5496 3.97461 13.4089 4.31818 13.4089ZM14.6818 13.4089C15.0254 13.4089 15.3549 13.5496 15.5978 13.8001C15.8408 14.0507 15.9773 14.3905 15.9773 14.7448C15.9773 15.0991 15.8408 15.4389 15.5978 15.6894C15.3549 15.94 15.0254 16.0807 14.6818 16.0807C14.3382 16.0807 14.0087 15.94 13.7658 15.6894C13.5229 15.4389 13.3864 15.0991 13.3864 14.7448C13.3864 14.3905 13.5229 14.0507 13.7658 13.8001C14.0087 13.5496 14.3382 13.4089 14.6818 13.4089Z" fill="#1E1E1E"/>
</svg>
